<?xml version="1.0" standalone="no"?><!DOCTYPE svg PUBLIC "-//W3C//DTD SVG 1.1//EN" "http://www.w3.org/Graphics/SVG/1.1/DTD/svg11.dtd"><svg t="1724298127577" class="icon" viewBox="0 0 1024 1024" version="1.1" xmlns="http://www.w3.org/2000/svg" p-id="15346" xmlns:xlink="http://www.w3.org/1999/xlink" width="24" height="24"><path d="M510.089948 2.228394c71.441244 0.053057 129.342342 57.954155 129.400705 129.395399a129.241534 129.241534 0 0 1-7.979772 44.748269L863.237306 355.741845c67.085264 5.836269 119.712497 62.135047 119.712497 130.732435v404.511834c0 72.475855-58.755316 131.236477-131.231171 131.236477H169.310176C96.829016 1022.222591 38.073699 963.461969 38.073699 890.986114V486.479585c0-68.310881 52.192166-124.429264 118.868892-130.663461l231.737036-179.475896a129.294591 129.294591 0 0 1-7.979772-44.716435C380.784746 60.193161 438.664622 2.313285 510.089948 2.228394z m310.760125 436.372559H200.17343c-43.485513 0-78.73658 35.251067-78.73658 78.736581v342.785326c0 43.485513 35.251067 78.73658 78.73658 78.73658h620.676643c43.490819 0 78.741886-35.251067 78.741886-78.73658V517.342839c0-43.490819-35.251067-78.73658-78.736581-78.73658z m-179.104498 300.313202a39.36829 39.36829 0 0 1 5.358757 78.370487l-5.358757 0.371399h-419.946114a39.36829 39.36829 0 0 1-5.353451-78.375792l5.358757-0.366094h419.946114z m-157.478466-131.231171a39.36829 39.36829 0 0 1 5.358756 78.370488l-5.358756 0.371398H221.799461a39.36829 39.36829 0 0 1-5.353451-78.375792l5.358757-0.371399h262.462342z m-47.905161-369.786031L284.916062 355.243109h450.379606L583.759585 237.960622a128.907275 128.907275 0 0 1-73.664331 23.053264 128.960332 128.960332 0 0 1-73.733306-23.122238z m73.733306-157.717222c-28.348352 0-51.444062 23.09571-51.444062 51.444062 0 10.744041 3.321368 20.739979 8.987855 29.006259 1.331731 1.464373 2.546736 3.03486 3.645015 4.690238a51.306114 51.306114 0 0 0 38.811192 17.747565 51.380394 51.380394 0 0 0 39.925388-19.052767l0.700353-0.94972 0.695046-0.870135a51.072663 51.072663 0 0 0 10.123275-30.57144c0-28.348352-23.101016-51.444062-51.444062-51.444062z" fill="#000000" p-id="15347"></path></svg>