<?xml version="1.0" standalone="no"?><!DOCTYPE svg PUBLIC "-//W3C//DTD SVG 1.1//EN" "http://www.w3.org/Graphics/SVG/1.1/DTD/svg11.dtd"><svg t="1724384179767" class="icon" viewBox="0 0 1024 1024" version="1.1" xmlns="http://www.w3.org/2000/svg" p-id="17047" xmlns:xlink="http://www.w3.org/1999/xlink" width="24" height="24"><path d="M467.84 217.6v-64a365.76 365.76 0 0 0-314.56 317.76h64a301.76 301.76 0 0 1 250.56-253.76zM813.76 472h64a365.76 365.76 0 0 0-313.92-320v64a301.76 301.76 0 0 1 249.92 256zM219.2 568h-64a365.76 365.76 0 0 0 313.28 310.08v-64a301.76 301.76 0 0 1-249.28-246.08zM563.84 812.16v64a365.76 365.76 0 0 0 313.28-309.76h-64a301.76 301.76 0 0 1-249.28 245.76zM515.84 472A43.84 43.84 0 1 0 560 515.84a44.16 44.16 0 0 0-44.16-43.84z m0.32 15.68h-3.2 3.2z" fill="#7A7A7A" p-id="17048"></path><path d="M486.08 48m16 0l22.4 0q16 0 16 16l0 258.56q0 16-16 16l-22.4 0q-16 0-16-16l0-258.56q0-16 16-16Z" fill="#7A7A7A" p-id="17049"></path><path d="M486.08 688m16 0l22.4 0q16 0 16 16l0 258.56q0 16-16 16l-22.4 0q-16 0-16-16l0-258.56q0-16 16-16Z" fill="#7A7A7A" p-id="17050"></path><path d="M978.56 486.08m0 16l0 22.4q0 16-16 16l-258.56 0q-16 0-16-16l0-22.4q0-16 16-16l258.56 0q16 0 16 16Z" fill="#7A7A7A" p-id="17051"></path><path d="M338.56 486.08m0 16l0 22.4q0 16-16 16l-258.56 0q-16 0-16-16l0-22.4q0-16 16-16l258.56 0q16 0 16 16Z" fill="#7A7A7A" p-id="17052"></path></svg>