<?xml version="1.0" standalone="no"?><!DOCTYPE svg PUBLIC "-//W3C//DTD SVG 1.1//EN" "http://www.w3.org/Graphics/SVG/1.1/DTD/svg11.dtd"><svg t="1724297853970" class="icon" viewBox="0 0 1024 1024" version="1.1" xmlns="http://www.w3.org/2000/svg" p-id="9763" xmlns:xlink="http://www.w3.org/1999/xlink" width="24" height="24"><path d="M761.344 374.272H732.16v-80.384-0.512-1.536-1.536-0.512c0-0.512 0-1.024-0.512-1.536-16.896-107.008-111.104-187.392-219.648-187.392-109.056 0-203.776 81.408-220.16 188.928v84.48h-29.184c-68.608 0-124.928 55.808-124.928 124.928V798.72c0 68.608 55.808 124.928 124.928 124.928h499.2c68.608 0 124.928-55.808 124.928-124.928v-299.52c-0.512-69.12-56.32-124.928-125.44-124.928zM353.28 296.96c12.8-76.8 80.384-134.656 158.72-134.656S658.432 220.16 670.72 296.96v77.312h-317.44V296.96z m471.552 501.76c0 34.816-28.672 63.488-63.488 63.488h-499.2c-34.816 0-63.488-28.672-63.488-63.488v-299.52c0-34.816 28.672-63.488 63.488-63.488h499.2c34.816 0 63.488 28.672 63.488 63.488V798.72z" p-id="9764" fill="#000000"></path><path d="M512 489.984c-56.832 0-102.912 46.08-102.912 102.912 0 46.08 30.208 85.504 72.192 98.304v97.28c0 16.896 13.824 30.72 30.72 30.72s30.72-13.824 30.72-30.72v-97.28c41.984-13.312 72.192-52.224 72.192-98.304 0-56.32-46.08-102.912-102.912-102.912z m0 144.896c-23.04 0-41.472-18.432-41.472-41.472s18.432-41.472 41.472-41.472 41.472 18.432 41.472 41.472-18.432 41.472-41.472 41.472z" p-id="9765" fill="#000000"></path></svg>