<?xml version="1.0" standalone="no"?><!DOCTYPE svg PUBLIC "-//W3C//DTD SVG 1.1//EN" "http://www.w3.org/Graphics/SVG/1.1/DTD/svg11.dtd"><svg t="1724297977555" class="icon" viewBox="0 0 1024 1024" version="1.1" xmlns="http://www.w3.org/2000/svg" p-id="14236" xmlns:xlink="http://www.w3.org/1999/xlink" width="24" height="24"><path d="M738.8 560.8c-63.5 0-115.1 51.6-115.1 115.1 0 49.9 32.2 92.1 76.7 108v40.3h76.7v-40.3c44.6-15.9 76.7-58.1 76.7-108 0.1-63.5-51.6-115.1-115-115.1z m0 153.4c-21.2 0-38.4-17.2-38.4-38.4s17.2-38.4 38.4-38.4 38.4 17.2 38.4 38.4-17.3 38.4-38.4 38.4zM277.6 283.8h414.3c18 0 32.6-14.6 32.6-32.6s-14.6-32.6-32.6-32.6H277.6c-18 0-32.6 14.6-32.6 32.6-0.1 18 14.6 32.6 32.6 32.6zM477 372H277.6c-18 0-32.6 14.6-32.6 32.6s14.6 32.6 32.6 32.6H477c18 0 32.6-14.6 32.6-32.6 0-17.9-14.6-32.6-32.6-32.6z" fill="#000000" p-id="14237"></path><path d="M761.5 13.4H207.9c-71.6 0-129.8 58.2-129.8 129.8V881c0 71.6 58.2 129.8 129.8 129.8h154.9c21.2 0 38.4-17.2 38.4-38.4S384 934 362.8 934H207.9c-29.3 0-53.1-23.8-53.1-53.1V143.2c0-29.3 23.8-53.1 53.1-53.1h553.6c29.3 0 53.1 23.8 53.1 53.1v292.2c0 21.2 17.2 38.4 38.4 38.4s38.4-17.2 38.4-38.4V143.2c-0.1-71.6-58.3-129.8-129.9-129.8z" fill="#000000" p-id="14238"></path><path d="M907.8 1010.7h-338c-21.1 0-38.2-17.1-38.2-38.2V849.4c0-21.1 17.1-38.2 38.2-38.2h337.9c21.1 0 38.2 17.1 38.2 38.2v123.1c0 21.1-17 38.2-38.1 38.2zM608.4 934h260.8v-46H608.4v46z" fill="#000000" p-id="14239"></path></svg>